<svg xmlns="http://www.w3.org/2000/svg" viewBox="0 0 48 48" width="36px" heigth="auto">
      <path fill="#334155" stroke-width="0px" d="M26.41.81c1.95,9.28-3.6,12.56-9.67,17.88-5.24,4.66-6.91,12-3.37,18.21,2.21,4.01,5.59,7.42,9.36,10.3-2.14-1.06-4.11-2.45-5.94-4.01-5.86-4.94-9.33-12.53-5.83-19.93C15.36,13.48,27.23,13.71,26.41.81h0Z"/>
      <path fill="#334155" stroke-width="0px" d="M26.41.81c2.26,8.6-2.25,12.29-7.67,17.84-7.96,8.74-5.34,17.81,2,25.87.34.38,1.33,1.54,1.65,1.93.15.24.48.5.34.74.08-.13-.08-.25-.15-.34-.17-.22-.74-.64-.95-.84-6.99-5.48-12.41-13.89-8.25-22.83C17.44,13.82,27.68,12.98,26.41.81h0Z"/>
      <path fill="#334155" stroke-width="0px" d="M26.4.81c3.79,11.48-5.82,14.84-9.1,23.87-3.16,7.85,1.04,14.51,5.2,20.99.18.45.69,1.12.22,1.53.36-.45-.23-.99-.47-1.36-3.96-4.5-8-9.65-7.93-15.99.05-4.52,2.08-8.93,4.89-12.37,4.94-5.65,8.24-8.54,7.19-16.66h0Z"/>
      <path fill="#334155" stroke-width="0px" d="M26.4.81c1.56,3.95,1.68,8.66-.49,12.44-3.12,5.49-6.91,10.18-7.31,16.5-.27,4.02,1.13,7.94,2.81,11.59.64,1.68,1.85,3.34,1.77,5.21-.06.28-.23.51-.46.64.79-.81-.15-1.94-.53-2.74-6.42-9.49-7.64-16.91-1.13-26.84,4.22-5.83,6.69-9.27,5.33-16.8h0Z"/>
      <path fill="#334155" stroke-width="0px" d="M26.4.81c1.71,3.76,2.28,8.24.73,12.18-2.26,5.78-5.61,10.63-6.13,16.76-.53,5.02,1.66,9.75,2.66,14.61.16.99.08,2.33-.93,2.83.41-.32.6-.81.61-1.28-.38-3.39-2.75-6.53-3.48-10-.85-3.02-1.05-6.35-.31-9.45,1.06-5.05,3.95-9.5,6.13-14.03,1.74-3.65,1.57-7.7.72-11.62h0Z"/>
      <path fill="#334155" stroke-width="0px" d="M26.39.81c1.88,3.61,2.85,7.88,1.92,11.93-1.9,7.81-6.21,14.72-4.83,22.91.27,2.95,1.25,5.99.9,9.02-.15,1.03-.73,2.04-1.67,2.51.8-.65,1.13-1.62,1.12-2.56-.51-4.98-2.87-9.75-2.36-14.91.41-6.1,3.56-11.63,5.33-17.33,1.17-3.8.64-7.77-.41-11.57h0Z"/>
      <path fill="#334155" stroke-width="0px" d="M26.39.81c5.8,9.11,2.05,17.08-.19,26.41-.64,2.86-.73,5.74-.64,8.69.03,2.96.53,6.24-.72,9.09-.48.95-1.26,1.69-2.13,2.19.76-.68,1.32-1.49,1.61-2.4.73-2.9-.09-5.81-.33-8.78-.28-2.51-.34-5.14.01-7.68,1.81-10.34,6.6-16.73,2.37-27.53h0Z"/>
      <path fill="#334155" stroke-width="0px" d="M26.39.81c6.26,8.64,4.45,17.09,2.17,26.64-1.17,4.93-.59,10.07-2.02,14.98-.61,2.02-2.02,3.82-3.83,4.75,1.56-1.33,2.56-3.08,2.88-5.01.8-4.93-.08-10.17,1.06-15.13,2.15-9.91,4.24-16.46-.26-26.24h0Z"/>
      <path fill="#334155" stroke-width="0px" d="M26.38.81c6.69,7.97,6.84,17.23,4.53,26.91-1.13,5.04-1.11,10.48-3.71,15.11-1.09,1.85-2.66,3.4-4.5,4.35,1.6-1.33,2.85-2.97,3.63-4.8,1.46-3.18,1.68-8.47,2.16-11.95,2.05-11.44,3.84-18.76-2.11-29.63h0Z"/>
      <path fill="#334155" stroke-width="0px" d="M26.38.81c6.12,6.25,8.92,15.36,7.45,24.02-1.2,6.32-1.99,13.1-6.13,18.28-1.39,1.69-3.1,3.09-4.99,4.08,1.65-1.36,3.1-2.9,4.2-4.66,3.34-5.33,3.82-11.93,4.94-17.97,1.46-8.4-.8-16.65-5.47-23.75h0Z"/>
      <path fill="#334155" stroke-width="0px" d="M26.37.81c10.88,9.82,12.67,24.33,5.85,37.1-2.2,3.99-5.63,7.2-9.52,9.28,3.44-2.79,6.32-6.13,8.14-10.01,5.79-13.04,4.27-25.07-4.47-36.37h0Z"/>
      <path fill="#334155" stroke-width="0px" d="M26.37.81c11.49,8.84,16.69,25.36,6.98,37.49-2.86,3.71-6.59,6.65-10.66,8.89,3.52-2.89,6.86-6.03,9.39-9.8,8.51-12.15,3.54-26.44-5.72-36.58h0Z"/>
      <path fill="#334155" stroke-width="0px" d="M10.75,23.02c-.84-5.6-.32-11.49,1.77-16.77-.75,5.64-1.23,11.11-1.77,16.77h0Z"/>
      <path fill="#334155" stroke-width="0px" d="M11.47,21.38c-.97-5-.73-10.33,1.05-15.13-.42,5.1-.64,10.02-1.05,15.13h0Z"/>
      <path fill="#334155" stroke-width="0px" d="M12.18,20.14c-1.13-4.53-1.15-9.43.34-13.89-.11,4.7-.09,9.2-.34,13.89h0Z"/>
      <path fill="#334155" stroke-width="0px" d="M12.9,19.12c-1.29-4.14-1.58-8.67-.38-12.87.18,4.35.45,8.51.38,12.87h0Z"/>
      <path fill="#334155" stroke-width="0px" d="M13.62,18.22c-1.44-3.78-2-7.99-1.11-11.96.49,4.04,1.01,7.89,1.11,11.96h0Z"/>
      <path fill="#334155" stroke-width="0px" d="M12.52,6.25c.82,3.74,1.6,7.31,1.86,11.14-1.6-3.45-2.42-7.34-1.86-11.14h0Z"/>
      <path fill="#334155" stroke-width="0px" d="M12.52,6.25c1.19,3.43,2.19,6.75,2.65,10.36-1.76-3.15-2.82-6.73-2.65-10.36h0Z"/>
      <path fill="#334155" stroke-width="0px" d="M12.52,6.25c1.59,3.08,2.83,6.2,3.48,9.62-1.92-2.88-3.2-6.15-3.48-9.62h0Z"/>
      <path fill="#334155" stroke-width="0px" d="M12.52,6.25c2.06,2.66,3.52,5.62,4.34,8.89-2.06-2.65-3.52-5.64-4.34-8.89h0Z"/>
      <path fill="#334155" stroke-width="0px" d="M12.52,6.25c2.48,2.19,4.2,5.04,5.26,8.16-2.25-2.42-3.88-5.16-5.26-8.16h0Z"/>
      <path fill="#334155" stroke-width="0px" d="M12.52,6.25c2.89,1.57,4.93,4.41,6.21,7.4-2.44-2.23-4.22-4.78-6.21-7.4h0Z"/>
      <path fill="#334155" stroke-width="0px" d="M12.52,6.25c3.25.89,5.68,3.72,7.2,6.62-2.65-2.06-4.62-4.49-7.2-6.62h0Z"/>
      <path fill="#334155" stroke-width="0px" d="M12.52,6.25c3.5.18,6.43,2.94,8.2,5.79-2.86-1.92-5.11-4.24-8.2-5.79h0Z"/>
      <path fill="#334155" stroke-width="0px" d="M12.52,6.25c3.66-.51,7.14,2.08,9.21,4.89-3.09-1.81-5.7-3.96-9.21-4.89h0Z"/>
      <path fill="#334155" stroke-width="0px" d="M12.52,6.25c3.73-1.12,7.78,1.12,10.16,3.92-3.34-1.7-6.35-3.57-10.16-3.92h0Z"/>
      <path fill="#334155" stroke-width="0px" d="M12.52,6.25c3.75-1.63,8.3.09,11.04,2.86-3.61-1.58-7.02-3.03-11.04-2.86h0Z"/>
      <path fill="#334155" stroke-width="0px" d="M12.52,6.25c3.71-2.05,8.67-.95,11.78,1.72-3.89-1.41-7.63-2.35-11.78-1.72h0Z"/>
      <path fill="#334155" stroke-width="0px" d="M12.52,6.25c3.67-2.38,8.87-1.96,12.38.53-4.16-1.16-8.14-1.55-12.38-.53h0Z"/>
      <path fill="#334155" stroke-width="0px" d="M12.52,6.25c3.63-2.64,8.93-2.88,12.81-.67-4.4-.82-8.53-.65-12.81.67h0Z"/>
</svg>